PathFileType	4	(X/Y/Z)	s11c0403.trc
DataRate	CameraRate	NumFrames	NumMarkers	Units	OrigDataRate	OrigDataStartFrame	OrigNumFrames
200	200	7	48	mm	200	1500	2000
Frame#	Time	racr			lacr			c7			jug			rlel			rdr			llel			ldr			s2			lic			ric			lasi			rasi			rpsi			lpsi			rgt			lgt			rth1			rth2			rth3			rth4			rlfc			rmfc			rsh1			rsh2			rsh3			rsh4			rlmal			rcal			rtoe			rmt5			lth1			lth2			lth4			lth3			llfc			lmfc			llmal			lcal			lmt5			lsh1			lsh2			lsh3			lsh4			ltoe			SBIKE			LBIKE			RBIKE			
		X1	Y1	Z1	X2	Y2	Z2	X3	Y3	Z3	X4	Y4	Z4	X5	Y5	Z5	X6	Y6	Z6	X7	Y7	Z7	X8	Y8	Z8	X9	Y9	Z9	X10	Y10	Z10	X11	Y11	Z11	X12	Y12	Z12	X13	Y13	Z13	X14	Y14	Z14	X15	Y15	Z15	X16	Y16	Z16	X17	Y17	Z17	X18	Y18	Z18	X19	Y19	Z19	X20	Y20	Z20	X21	Y21	Z21	X22	Y22	Z22	X23	Y23	Z23	X24	Y24	Z24	X25	Y25	Z25	X26	Y26	Z26	X27	Y27	Z27	X28	Y28	Z28	X29	Y29	Z29	X30	Y30	Z30	X31	Y31	Z31	X32	Y32	Z32	X33	Y33	Z33	X34	Y34	Z34	X35	Y35	Z35	X36	Y36	Z36	X37	Y37	Z37	X38	Y38	Z38	X39	Y39	Z39	X40	Y40	Z40	X41	Y41	Z41	X42	Y42	Z42	X43	Y43	Z43	X44	Y44	Z44	X45	Y45	Z45	X46	Y46	Z46	X47	Y47	Z47	X48	Y48	Z48	
1500	7.5000	777.202444	1328.953032	-37.548046	818.740453	1332.000717	-368.970553	786.889186	1432.230537	-206.372203	739.158107	1256.191579	-216.786693	600.435305	1124.422366	73.405651	766.359435	971.321195	-61.983297	605.175013	1188.534675	-567.355262	775.112981	957.801930	-477.386393	181.299395	1329.281987	-266.405457	392.995953	1278.015799	-465.118088	387.337398	1316.957684	-61.845341	407.769430	1207.587128	-428.722775	409.986201	1242.718120	-98.280407	238.005015	1402.590150	-226.457295	237.114383	1386.020597	-317.193375	344.002426	1204.622871	-37.035285	250.911092	1164.743338	-461.268868	447.632393	1102.279792	-46.223375	522.791412	1057.169491	-63.180133	565.406500	980.342613	-75.072483	544.346169	1081.771955	-79.702732	640.718209	903.596091	-98.302560	632.565913	885.304614	-231.414967	550.288122	768.702040	-79.727516	514.735028	688.455705	-93.885603	446.228526	635.059750	-90.945428	535.111194	676.012174	-126.032575	347.358836	525.771966	-97.707813	276.841668	537.394865	-142.266614	520.683516	384.385053	-154.429713	449.491316	389.198337	-81.788898	290.207202	1025.054575	-479.757229	329.888219	949.809791	-477.640689	366.166008	956.782714	-475.057376	326.321799	860.185333	-471.550917	348.481780	723.482405	-453.036664	371.996333	709.108016	-327.515138	72.549478	396.650823	-416.746602	11.719188	404.893267	-378.718706	122.375748	230.936536	-451.493084	264.649850	629.056072	-468.953551	232.759433	551.606868	-452.614889	163.609643	497.014730	-443.177289	260.596695	533.921255	-431.043457	209.910878	181.507031	-388.460548	-177.114223	972.278835	-169.429912	-17.985990	81.614967	-460.557155	-17.934441	81.284793	-61.826767	
1501	7.5050	777.814143	1327.819173	-37.634145	818.395356	1332.883504	-369.044426	787.709864	1432.259566	-205.709155	739.268785	1256.988183	-216.760597	599.733878	1124.332539	73.242844	765.752161	971.312652	-61.279687	605.311175	1188.402497	-567.482387	775.819565	956.999124	-478.644488	182.144356	1332.155486	-264.607972	392.810500	1280.981480	-464.319570	387.537242	1317.050627	-60.459885	408.117231	1209.829677	-429.092340	409.291239	1242.451333	-96.657449	239.459374	1404.897444	-224.236281	238.055806	1388.768689	-315.005417	342.521998	1204.429331	-36.415216	251.302476	1167.234551	-460.933628	443.492851	1098.934505	-47.347743	518.141211	1053.403877	-61.737715	559.223357	976.169454	-72.579192	540.433929	1077.586732	-78.743458	633.626710	897.651460	-97.831039	624.975173	878.648202	-229.250081	544.349710	760.878456	-79.134936	510.327636	680.170030	-93.425240	442.861115	625.333907	-90.748244	531.162273	668.006268	-125.476317	346.442853	513.928114	-98.137404	276.005893	523.082682	-142.849178	524.592150	378.408532	-154.016635	453.181742	380.661516	-81.542440	293.808889	1027.480228	-479.926229	335.298745	953.196459	-478.458108	371.373753	960.949341	-475.692948	333.871274	863.477510	-473.491731	357.859528	726.798935	-454.944353	381.759397	712.159751	-329.580042	73.482296	407.184988	-418.357432	13.362613	417.220527	-379.541637	118.546745	239.685868	-451.471341	271.379657	634.505883	-470.916699	237.493524	557.935367	-454.303348	166.967212	505.172213	-444.730289	264.846278	539.600792	-432.674750	204.519544	187.837964	-388.243001	-177.222710	972.246861	-169.360780	-17.983081	81.629177	-460.566675	-17.929091	81.280180	-61.844944	
1502	7.5100	778.430611	1327.007984	-37.944110	818.174316	1334.332517	-369.402112	788.645329	1432.612571	-205.447392	739.611678	1257.868577	-216.888226	598.998733	1124.501079	72.897394	765.264026	971.376890	-60.602320	605.424585	1188.237298	-567.526463	776.482366	956.149335	-479.664542	182.785826	1334.969085	-262.967674	392.703194	1283.744049	-463.483984	387.708678	1316.922821	-59.120561	408.429045	1211.327239	-429.593427	408.573679	1241.666255	-95.129981	240.900894	1406.977010	-222.167508	239.114693	1391.281818	-313.012124	340.837167	1203.769013	-36.158519	252.013744	1169.604278	-460.739411	439.505391	1096.031461	-46.736645	513.300936	1049.189563	-60.923213	552.906734	971.189295	-71.774595	536.149285	1073.050338	-77.610236	625.691979	890.653572	-97.469490	617.962257	871.827551	-227.836700	537.985696	752.416638	-78.389175	505.601033	671.012176	-92.927951	439.135648	614.974881	-90.618886	526.774148	659.359055	-124.805943	345.370888	501.659468	-98.656206	274.806589	508.622319	-143.294072	527.846887	371.628312	-153.617082	456.205444	371.763224	-81.218018	297.522741	1029.890986	-480.129416	340.805607	956.558388	-479.297412	376.695143	965.239683	-476.262509	341.537805	866.711529	-475.296432	367.403534	730.038359	-456.756305	391.198162	715.301640	-331.944655	74.919414	417.688224	-419.980492	15.199224	429.650284	-381.037178	115.306233	248.492172	-451.475737	278.539080	639.750168	-472.400108	242.623643	564.269156	-455.712326	170.780490	513.404036	-446.275246	269.460703	545.443128	-434.183598	199.691235	194.731117	-387.834167	-177.152146	972.216382	-169.567905	-17.993556	81.634258	-460.570777	-17.938543	81.280794	-61.850157	
1503	7.5150	779.202834	1326.546144	-38.225000	817.976942	1336.140995	-369.868939	789.491973	1432.917972	-205.318806	740.127384	1258.423421	-217.347487	598.520766	1124.891784	72.384007	764.948448	971.566186	-59.842222	605.534955	1188.125117	-567.458997	777.105279	955.293293	-480.407492	184.129093	1336.866329	-262.156826	392.668133	1286.379438	-462.476262	387.826026	1316.259149	-57.507255	408.505692	1212.536943	-429.697217	407.869924	1240.620532	-93.608912	242.092720	1408.499905	-220.241005	240.070600	1393.540038	-310.992259	338.960382	1202.578329	-36.161182	252.856788	1171.795979	-460.524531	435.291139	1092.767828	-45.788652	508.280929	1044.434957	-60.043995	546.270878	965.614107	-71.002745	531.751917	1068.061856	-76.527105	617.547496	883.286166	-96.609090	610.487447	864.231075	-226.341556	531.136863	743.407816	-77.644951	500.689456	661.270715	-92.460761	435.295620	603.888236	-90.444874	522.236533	650.190834	-124.205663	344.475182	489.107539	-99.196929	273.588737	494.087422	-143.842200	530.396021	364.168427	-153.177885	458.608175	362.199808	-80.925204	301.532386	1032.249832	-480.308058	346.457047	959.905641	-480.044000	382.108788	969.343175	-476.804689	349.212944	870.167732	-477.180496	376.920805	733.366141	-458.423693	400.770406	718.572272	-333.684530	76.836176	428.320892	-421.635224	17.525397	441.940618	-382.596446	112.811078	257.591864	-451.616209	285.881461	645.198858	-474.151789	248.035696	570.680977	-457.080193	174.998227	521.684650	-447.805441	274.404945	551.379459	-435.558548	195.196415	201.230400	-386.298615	-177.081162	972.499581	-168.866079	-18.015757	81.620701	-460.585502	-17.950776	81.241382	-61.858079	
1504	7.5200	780.211512	1326.362648	-38.432546	817.730464	1338.103707	-370.453374	790.426688	1433.606972	-205.510125	740.813210	1259.751552	-217.446293	597.913526	1125.579728	71.702157	764.800744	971.878808	-58.988647	605.588473	1188.041243	-567.361836	777.151583	954.842889	-480.665298	185.002379	1338.671068	-260.669963	392.682421	1288.765050	-461.440730	388.100303	1315.096694	-56.162690	408.651530	1214.045393	-429.488938	407.208564	1239.042626	-92.243474	243.249994	1409.769576	-217.993500	240.703129	1395.523772	-308.724650	336.957892	1201.034073	-36.346916	253.995547	1173.800407	-460.348080	430.840856	1089.008184	-44.818028	502.618223	1039.204105	-58.274636	539.335735	959.826979	-70.154319	526.494854	1062.674323	-74.742024	608.832363	875.324953	-95.462902	602.513020	856.071813	-224.757394	524.196156	733.809072	-77.072994	495.464505	651.077259	-92.102476	431.300023	592.407678	-90.385448	517.314594	640.400296	-123.857214	343.197305	476.467313	-99.731611	272.341162	479.392623	-144.730647	532.484377	355.732564	-152.812644	460.325638	352.300784	-80.642554	305.617907	1034.550037	-480.499575	352.133276	963.277416	-480.760921	387.577388	973.374146	-477.299535	356.969363	873.496846	-478.951171	386.714865	736.817801	-460.180925	410.419062	721.950931	-335.175077	79.326588	438.988310	-423.150303	20.524357	454.158979	-383.933148	110.793536	266.869662	-451.650721	293.407268	650.782612	-475.721224	253.769610	577.026557	-458.084559	179.593840	529.975458	-449.167759	279.668537	557.303322	-436.921410	191.449167	208.588183	-385.735213	-177.124170	972.183695	-169.610354	-18.010547	81.614698	-460.597457	-17.968210	81.228169	-61.866262	
1505	7.5250	781.308428	1326.527267	-38.681737	817.410225	1340.124692	-371.025479	791.300221	1434.234765	-205.848612	741.661540	1260.514543	-217.934149	597.485073	1126.453069	70.979672	764.802213	972.323577	-58.116569	605.755652	1188.161544	-567.110593	777.113217	954.716883	-480.121109	185.711823	1340.267646	-258.589169	392.773647	1291.081006	-460.325833	388.499540	1313.464370	-54.756939	409.015549	1215.537164	-428.833360	406.622164	1237.147746	-91.033597	244.347223	1410.887656	-215.405625	240.791809	1397.213318	-305.988028	334.830964	1199.134515	-36.687531	255.399066	1175.598569	-460.162669	426.210725	1085.023562	-43.948593	496.977352	1033.683834	-57.071571	532.635870	953.256432	-70.335732	522.117374	1056.305053	-73.170751	599.832750	866.810737	-94.406890	594.394252	847.622298	-222.194285	517.006090	723.610197	-76.443106	490.109651	640.413766	-91.845792	427.280324	580.325938	-90.322428	512.236425	630.235454	-123.635635	341.888745	463.538109	-100.469395	270.941164	465.037857	-145.801585	533.891076	347.122950	-152.091567	461.386328	342.317996	-80.374714	309.937286	1036.899650	-480.666015	357.960889	966.572302	-481.473669	393.138158	977.392332	-477.752115	364.757188	877.158031	-480.761020	396.412713	740.415523	-461.702667	420.087154	725.416958	-336.791771	82.375017	449.619503	-424.581816	24.149677	466.348124	-385.055252	109.345498	276.482152	-451.583156	301.129817	656.408388	-477.165259	259.786904	583.578770	-459.415973	184.604586	538.229245	-450.489026	285.260155	563.414595	-438.242089	188.376869	216.274412	-385.535597	-177.249704	972.063985	-169.733003	-18.019503	81.546035	-460.609570	-17.980623	81.183077	-61.889874	
1506	7.5300	782.557140	1326.777483	-39.057485	817.054283	1342.247273	-371.588372	792.169243	1435.126906	-206.470715	742.634077	1261.840723	-218.266832	597.136226	1127.678032	70.206237	764.880370	972.732693	-57.113369	605.915138	1188.405637	-566.721910	777.098202	954.884305	-479.501381	186.507026	1341.306338	-257.284884	392.954468	1293.130276	-459.233918	389.001551	1311.386108	-53.488976	409.302082	1217.040852	-427.989376	406.155153	1234.808005	-89.934383	245.481449	1411.370851	-213.419508	241.445728	1398.517926	-304.068412	332.541360	1196.817272	-37.050799	257.002166	1177.342703	-460.030400	421.497411	1080.519311	-42.972044	491.198128	1027.596862	-55.882320	525.042037	946.562631	-69.452764	517.299315	1049.761804	-71.540568	590.422983	858.070621	-93.102596	585.164396	838.796538	-221.478755	509.729206	713.117723	-75.969280	484.491485	629.533331	-91.830013	423.146965	567.881565	-90.365973	506.992869	619.704411	-123.896957	340.376105	450.528455	-101.409554	269.454762	450.942533	-147.162131	534.555770	338.343500	-150.911862	461.713422	331.912020	-79.973258	314.419903	1039.228928	-480.851891	363.834345	969.836873	-482.047164	398.742039	981.262226	-478.148131	372.224740	880.321057	-481.882049	406.084547	744.142231	-463.068538	429.673584	728.994566	-338.322815	85.926425	460.310669	-425.886064	28.176061	478.456320	-385.771837	108.538204	286.278342	-451.703993	309.034399	662.045502	-478.529657	266.118657	590.171950	-460.559661	189.936919	546.511854	-451.706510	291.077661	569.670558	-439.518922	185.973932	224.221693	-385.301237	-177.251207	971.984374	-169.755588	-18.009367	81.524764	-460.638932	-17.981417	81.127493	-61.893036	
